<svg width="302" height="61" viewBox="0 0 302 61" fill="none" xmlns="http://www.w3.org/2000/svg">
<g clip-path="url(#clip0_6_301)">
<path d="M40.8935 50.9998C31.4491 50.7119 23.0287 47.5653 15.2177 42.5246C9.72548 38.989 4.94635 34.5999 0.394791 29.9531C-0.0249633 29.5263 -0.174151 29.2081 0.27089 28.6728C7.85682 19.5813 17.0257 12.6769 28.397 9.05042C39.8391 5.40123 50.8842 6.68665 61.4261 12.3915C68.9185 16.4473 75.1137 22.0537 80.6716 28.4253C81.1293 28.948 81.0863 29.3167 80.6716 29.8243C77.3658 33.9345 73.541 37.5998 69.2927 40.729C63.3378 45.1106 56.8619 48.4012 49.5693 49.8381C46.7119 50.4013 43.7888 50.6235 40.8935 50.9998ZM75.627 29.2208C75.5767 29.116 75.5166 29.0162 75.4474 28.9228C70.0816 23.2053 64.1545 18.2075 56.9883 14.8639C48.2367 10.7828 39.2145 10.1793 29.9698 12.9698C23.9011 14.8033 18.4619 17.8565 13.5336 21.7683C10.694 24.0109 8.08187 26.5211 5.26496 29.0213C7.56097 31.0542 9.56365 32.9407 11.6902 34.6883C17.0282 39.09 22.8567 42.6407 29.5146 44.7343C38.0791 47.4289 46.5299 47.1056 54.8845 43.8984C62.8421 40.8401 69.4925 35.8651 75.2679 29.6854C75.4019 29.5516 75.5081 29.3748 75.627 29.2208Z" fill="white"/>
<path d="M40.5493 42.3227C38.7667 42.3309 37.0004 41.9847 35.3531 41.3045C33.7058 40.6242 32.2105 39.6234 30.9543 38.3603C29.6981 37.0973 28.7061 35.5972 28.036 33.9475C27.366 32.2978 27.0312 30.5314 27.0514 28.7512C27.0716 21.4276 33.2011 15.4222 40.6403 15.4525C47.9253 15.4828 54.0194 21.5135 54.075 28.7411C54.0853 30.5214 53.7431 32.2862 53.0679 33.9338C52.3927 35.5815 51.398 37.0796 50.1409 38.3419C48.8839 39.6041 47.3893 40.6057 45.7431 41.2889C44.097 41.9721 42.3319 42.3234 40.5493 42.3227ZM40.5695 34.5167C42.063 34.5023 43.4896 33.896 44.5355 32.8311C45.5814 31.7662 46.1609 30.33 46.1464 28.8384C46.132 27.3468 45.5249 25.922 44.4586 24.8775C43.3924 23.8329 41.9543 23.2542 40.4608 23.2686C38.9673 23.283 37.5407 23.8894 36.4948 24.9543C35.4489 26.0192 34.8694 27.4554 34.8839 28.947C34.8983 30.4386 35.5054 31.8633 36.5717 32.9079C37.6379 33.9524 39.076 34.5311 40.5695 34.5167Z" fill="white"/>
</g>
<path d="M116.76 15.92V21.4H105.32V27.32H113.88V32.64H105.32V44H98.48V15.92H116.76ZM118.995 32.8C118.995 30.5067 119.422 28.4933 120.275 26.76C121.155 25.0267 122.342 23.6933 123.835 22.76C125.328 21.8267 126.995 21.36 128.835 21.36C130.408 21.36 131.782 21.68 132.955 22.32C134.155 22.96 135.075 23.8 135.715 24.84V21.68H142.555V44H135.715V40.84C135.048 41.88 134.115 42.72 132.915 43.36C131.742 44 130.368 44.32 128.795 44.32C126.982 44.32 125.328 43.8533 123.835 42.92C122.342 41.96 121.155 40.6133 120.275 38.88C119.422 37.12 118.995 35.0933 118.995 32.8ZM135.715 32.84C135.715 31.1333 135.235 29.7867 134.275 28.8C133.342 27.8133 132.195 27.32 130.835 27.32C129.475 27.32 128.315 27.8133 127.355 28.8C126.422 29.76 125.955 31.0933 125.955 32.8C125.955 34.5067 126.422 35.8667 127.355 36.88C128.315 37.8667 129.475 38.36 130.835 38.36C132.195 38.36 133.342 37.8667 134.275 36.88C135.235 35.8933 135.715 34.5467 135.715 32.84ZM146.143 32.84C146.143 30.52 146.61 28.4933 147.543 26.76C148.503 25.0267 149.823 23.6933 151.503 22.76C153.21 21.8267 155.157 21.36 157.343 21.36C160.143 21.36 162.477 22.0933 164.343 23.56C166.237 25.0267 167.477 27.0933 168.063 29.76H160.783C160.17 28.0533 158.983 27.2 157.223 27.2C155.97 27.2 154.97 27.6933 154.223 28.68C153.477 29.64 153.103 31.0267 153.103 32.84C153.103 34.6533 153.477 36.0533 154.223 37.04C154.97 38 155.97 38.48 157.223 38.48C158.983 38.48 160.17 37.6267 160.783 35.92H168.063C167.477 38.5333 166.237 40.5867 164.343 42.08C162.45 43.5733 160.117 44.32 157.343 44.32C155.157 44.32 153.21 43.8533 151.503 42.92C149.823 41.9867 148.503 40.6533 147.543 38.92C146.61 37.1867 146.143 35.16 146.143 32.84ZM184.162 38.2V44H180.682C178.202 44 176.269 43.4 174.882 42.2C173.496 40.9733 172.802 38.9867 172.802 36.24V27.36H170.082V21.68H172.802V16.24H179.642V21.68H184.122V27.36H179.642V36.32C179.642 36.9867 179.802 37.4667 180.122 37.76C180.442 38.0533 180.976 38.2 181.722 38.2H184.162ZM198.132 44.32C195.946 44.32 193.972 43.8533 192.212 42.92C190.479 41.9867 189.106 40.6533 188.092 38.92C187.106 37.1867 186.612 35.16 186.612 32.84C186.612 30.5467 187.119 28.5333 188.132 26.8C189.146 25.04 190.532 23.6933 192.292 22.76C194.052 21.8267 196.026 21.36 198.212 21.36C200.399 21.36 202.372 21.8267 204.132 22.76C205.892 23.6933 207.279 25.04 208.292 26.8C209.306 28.5333 209.812 30.5467 209.812 32.84C209.812 35.1333 209.292 37.16 208.252 38.92C207.239 40.6533 205.839 41.9867 204.052 42.92C202.292 43.8533 200.319 44.32 198.132 44.32ZM198.132 38.4C199.439 38.4 200.546 37.92 201.452 36.96C202.386 36 202.852 34.6267 202.852 32.84C202.852 31.0533 202.399 29.68 201.492 28.72C200.612 27.76 199.519 27.28 198.212 27.28C196.879 27.28 195.772 27.76 194.892 28.72C194.012 29.6533 193.572 31.0267 193.572 32.84C193.572 34.6267 193.999 36 194.852 36.96C195.732 37.92 196.826 38.4 198.132 38.4ZM220.281 24.84C220.948 23.8 221.868 22.96 223.041 22.32C224.214 21.68 225.588 21.36 227.161 21.36C229.001 21.36 230.668 21.8267 232.161 22.76C233.654 23.6933 234.828 25.0267 235.681 26.76C236.561 28.4933 237.001 30.5067 237.001 32.8C237.001 35.0933 236.561 37.12 235.681 38.88C234.828 40.6133 233.654 41.96 232.161 42.92C230.668 43.8533 229.001 44.32 227.161 44.32C225.614 44.32 224.241 44 223.041 43.36C221.868 42.72 220.948 41.8933 220.281 40.88V54.64H213.441V21.68H220.281V24.84ZM230.041 32.8C230.041 31.0933 229.561 29.76 228.601 28.8C227.668 27.8133 226.508 27.32 225.121 27.32C223.761 27.32 222.601 27.8133 221.641 28.8C220.708 29.7867 220.241 31.1333 220.241 32.84C220.241 34.5467 220.708 35.8933 221.641 36.88C222.601 37.8667 223.761 38.36 225.121 38.36C226.481 38.36 227.641 37.8667 228.601 36.88C229.561 35.8667 230.041 34.5067 230.041 32.8ZM247.949 21.68V44H241.109V21.68H247.949ZM249.189 16.12L239.549 20.16V15.44L249.189 10.8V16.12ZM252.081 32.8C252.081 30.5067 252.508 28.4933 253.361 26.76C254.241 25.0267 255.428 23.6933 256.921 22.76C258.414 21.8267 260.081 21.36 261.921 21.36C263.494 21.36 264.868 21.68 266.041 22.32C267.241 22.96 268.161 23.8 268.801 24.84V21.68H275.641V44H268.801V40.84C268.134 41.88 267.201 42.72 266.001 43.36C264.828 44 263.454 44.32 261.881 44.32C260.068 44.32 258.414 43.8533 256.921 42.92C255.428 41.96 254.241 40.6133 253.361 38.88C252.508 37.12 252.081 35.0933 252.081 32.8ZM268.801 32.84C268.801 31.1333 268.321 29.7867 267.361 28.8C266.428 27.8133 265.281 27.32 263.921 27.32C262.561 27.32 261.401 27.8133 260.441 28.8C259.508 29.76 259.041 31.0933 259.041 32.8C259.041 34.5067 259.508 35.8667 260.441 36.88C261.401 37.8667 262.561 38.36 263.921 38.36C265.281 38.36 266.428 37.8667 267.361 36.88C268.321 35.8933 268.801 34.5467 268.801 32.84Z" fill="white"/>
<defs>
<clipPath id="clip0_6_301">
<rect width="81" height="44" fill="white" transform="translate(0 7)"/>
</clipPath>
</defs>
</svg>
