<svg width="30" height="28" viewBox="0 0 30 28" fill="none" xmlns="http://www.w3.org/2000/svg">
<path d="M23.6241 27.9112C23.4136 27.912 23.2082 27.8472 23.0371 27.7258L14.9984 21.9644L6.95974 27.7258C6.788 27.849 6.5811 27.9149 6.36894 27.9142C6.15678 27.9134 5.95036 27.846 5.77953 27.7216C5.6087 27.5972 5.48231 27.4224 5.41862 27.2223C5.35494 27.0222 5.35726 26.8073 5.42526 26.6086L8.56048 17.4283L0.434903 11.9195C0.258898 11.8003 0.126059 11.6286 0.0557958 11.4295C-0.0144673 11.2304 -0.0184724 11.0142 0.0443658 10.8127C0.107204 10.6111 0.233592 10.4347 0.405064 10.3092C0.576536 10.1838 0.784105 10.1158 0.997443 10.1152H11.0219L14.0471 0.911356C14.1123 0.712648 14.2395 0.539452 14.4104 0.416616C14.5813 0.29378 14.7871 0.227615 14.9984 0.227615C15.2097 0.227615 15.4156 0.29378 15.5865 0.416616C15.7574 0.539452 15.8846 0.712648 15.9498 0.911356L18.975 10.1183H28.9994C29.213 10.1182 29.4211 10.1857 29.5931 10.311C29.765 10.4362 29.8919 10.6126 29.9552 10.8143C30.0184 11.016 30.0147 11.2324 29.9445 11.4319C29.8743 11.6313 29.7413 11.8033 29.5651 11.9226L21.4364 17.4283L24.5697 26.6062C24.6205 26.7548 24.6348 26.9132 24.6114 27.0683C24.588 27.2234 24.5276 27.3708 24.4352 27.4983C24.3429 27.6258 24.2211 27.7298 24.0801 27.8015C23.939 27.8733 23.7827 27.9109 23.6241 27.9112Z" fill="#B1B2FF"/>
</svg>
