<svg width="30" height="28" viewBox="0 0 30 28" fill="none" xmlns="http://www.w3.org/2000/svg">
<path d="M23.6232 27.4111L23.6221 27.4111C23.5159 27.4115 23.4128 27.3789 23.3273 27.3186C23.327 27.3184 23.3267 27.3182 23.3264 27.3179L15.2897 21.5579L14.9984 21.3491L14.7072 21.5579L6.66847 27.3194L6.66839 27.3194C6.58245 27.381 6.4782 27.4145 6.37073 27.4141C6.26327 27.4137 6.15929 27.3795 6.07382 27.3173C5.98845 27.2551 5.92624 27.1685 5.89506 27.0706C5.86391 26.9727 5.86504 26.8677 5.89832 26.7705L5.89843 26.7702L9.03365 17.5898L9.15702 17.2285L8.84106 17.0143L0.715478 11.5056L0.715262 11.5055C0.627191 11.4458 0.561728 11.3606 0.527307 11.2631C0.492912 11.1656 0.490969 11.06 0.521704 10.9614C0.552461 10.8628 0.614652 10.7754 0.700341 10.7127C0.785961 10.65 0.89029 10.6156 0.998144 10.6151H11.0219H11.3839L11.4969 10.2713L14.5221 1.06741L14.5222 1.0671C14.5541 0.969805 14.6167 0.883956 14.7022 0.822552C14.7877 0.761087 14.8914 0.727539 14.9984 0.727539C15.1055 0.727539 15.2092 0.761087 15.2947 0.822552C15.3801 0.883956 15.4427 0.969805 15.4747 1.0671L15.4747 1.06736L18.5 10.2743L18.613 10.6182H18.975H28.9994H28.9997C29.1079 10.6182 29.2127 10.6524 29.2987 10.7151C29.3847 10.7777 29.4471 10.8651 29.4781 10.9638C29.509 11.0624 29.5072 11.1682 29.4728 11.2658C29.4384 11.3635 29.3729 11.4488 29.2847 11.5085L29.2847 11.5086L21.156 17.0142L20.8398 17.2283L20.9632 17.5897L24.0966 26.7676L24.0966 26.7677C24.1215 26.8405 24.1284 26.9179 24.117 26.9937C24.1056 27.0694 24.076 27.1418 24.0304 27.2048C23.9847 27.2679 23.9241 27.3198 23.8532 27.3559C23.7824 27.392 23.7035 27.411 23.6232 27.4111Z" fill="white" stroke="#EEF1FF"/>
</svg>
